<svg width="1000" height="1000" viewBox="0 0 1000 1000" fill="none" xmlns="http://www.w3.org/2000/svg">
<circle cx="500" cy="500" r="500" fill="#313131"/>
<g filter="url(#filter0_d_215_95)">
<path d="M900 549.675C900 680.746 720.914 787 500 787C279.086 787 100 680.746 100 549.675C100 549.675 279.086 733 500 733C720.914 733 900 549.675 900 549.675Z" fill="#00BFFF"/>
</g>
<g filter="url(#filter1_d_215_95)">
<path d="M800 431C800 561.892 665.685 668 500 668C334.315 668 200 561.892 200 431C200 431 334.315 614.074 500 614.074C665.685 614.074 800 431 800 431Z" fill="#00BFFF"/>
</g>
<g filter="url(#filter2_d_215_95)">
<path d="M700 313C700 443.892 610.457 550 500 550C389.543 550 300 443.892 300 313C300 313 389.543 496.074 500 496.074C610.457 496.074 700 313 700 313Z" fill="#00BFFF"/>
</g>
<g filter="url(#filter3_d_215_95)">
<circle cx="500" cy="313" r="100" fill="#00BFFF"/>
</g>
<defs>
<filter id="filter0_d_215_95" x="92" y="549.675" width="816" height="265.325" filterUnits="userSpaceOnUse" color-interpolation-filters="sRGB">
<feFlood flood-opacity="0" result="BackgroundImageFix"/>
<feColorMatrix in="SourceAlpha" type="matrix" values="0 0 0 0 0 0 0 0 0 0 0 0 0 0 0 0 0 0 127 0" result="hardAlpha"/>
<feOffset dy="20"/>
<feGaussianBlur stdDeviation="4"/>
<feComposite in2="hardAlpha" operator="out"/>
<feColorMatrix type="matrix" values="0 0 0 0 0.121569 0 0 0 0 0.701961 0 0 0 0 0.898039 0 0 0 0.25 0"/>
<feBlend mode="normal" in2="BackgroundImageFix" result="effect1_dropShadow_215_95"/>
<feBlend mode="normal" in="SourceGraphic" in2="effect1_dropShadow_215_95" result="shape"/>
</filter>
<filter id="filter1_d_215_95" x="192" y="431" width="616" height="265" filterUnits="userSpaceOnUse" color-interpolation-filters="sRGB">
<feFlood flood-opacity="0" result="BackgroundImageFix"/>
<feColorMatrix in="SourceAlpha" type="matrix" values="0 0 0 0 0 0 0 0 0 0 0 0 0 0 0 0 0 0 127 0" result="hardAlpha"/>
<feOffset dy="20"/>
<feGaussianBlur stdDeviation="4"/>
<feComposite in2="hardAlpha" operator="out"/>
<feColorMatrix type="matrix" values="0 0 0 0 0.121569 0 0 0 0 0.701961 0 0 0 0 0.898039 0 0 0 0.25 0"/>
<feBlend mode="normal" in2="BackgroundImageFix" result="effect1_dropShadow_215_95"/>
<feBlend mode="normal" in="SourceGraphic" in2="effect1_dropShadow_215_95" result="shape"/>
</filter>
<filter id="filter2_d_215_95" x="292" y="313" width="416" height="265" filterUnits="userSpaceOnUse" color-interpolation-filters="sRGB">
<feFlood flood-opacity="0" result="BackgroundImageFix"/>
<feColorMatrix in="SourceAlpha" type="matrix" values="0 0 0 0 0 0 0 0 0 0 0 0 0 0 0 0 0 0 127 0" result="hardAlpha"/>
<feOffset dy="20"/>
<feGaussianBlur stdDeviation="4"/>
<feComposite in2="hardAlpha" operator="out"/>
<feColorMatrix type="matrix" values="0 0 0 0 0.121569 0 0 0 0 0.701961 0 0 0 0 0.898039 0 0 0 0.25 0"/>
<feBlend mode="normal" in2="BackgroundImageFix" result="effect1_dropShadow_215_95"/>
<feBlend mode="normal" in="SourceGraphic" in2="effect1_dropShadow_215_95" result="shape"/>
</filter>
<filter id="filter3_d_215_95" x="392" y="213" width="216" height="228" filterUnits="userSpaceOnUse" color-interpolation-filters="sRGB">
<feFlood flood-opacity="0" result="BackgroundImageFix"/>
<feColorMatrix in="SourceAlpha" type="matrix" values="0 0 0 0 0 0 0 0 0 0 0 0 0 0 0 0 0 0 127 0" result="hardAlpha"/>
<feOffset dy="20"/>
<feGaussianBlur stdDeviation="4"/>
<feComposite in2="hardAlpha" operator="out"/>
<feColorMatrix type="matrix" values="0 0 0 0 0.121569 0 0 0 0 0.701961 0 0 0 0 0.898039 0 0 0 0.25 0"/>
<feBlend mode="normal" in2="BackgroundImageFix" result="effect1_dropShadow_215_95"/>
<feBlend mode="normal" in="SourceGraphic" in2="effect1_dropShadow_215_95" result="shape"/>
</filter>
</defs>
</svg>
