<svg width="41" height="50" viewBox="0 0 41 50" fill="none" xmlns="http://www.w3.org/2000/svg">
<path d="M20.4872 0L34.9909 14.649C37.8592 17.5442 39.813 21.2335 40.6051 25.2503C41.3972 29.2671 40.992 33.4309 39.4408 37.2151C37.8896 40.9993 35.2621 44.2339 31.8906 46.5096C28.5191 48.7853 24.5551 50 20.5 50C16.4449 50 12.4809 48.7853 9.10942 46.5096C5.73792 44.2339 3.11039 40.9993 1.55919 37.2151C0.00799195 33.4309 -0.397191 29.2671 0.394894 25.2503C1.18698 21.2335 3.14075 17.5442 6.00907 14.649L20.4872 0Z" fill="#00BFFF"/>
<path d="M8.8 23.44H6.94C6.72667 23.44 6.62 23.4933 6.62 23.6V36H4.52C4.06667 36 3.76667 35.9267 3.62 35.78C3.48667 35.6333 3.42 35.3267 3.42 34.86V22.68C3.42 22.2133 3.48667 21.9067 3.62 21.76C3.76667 21.6133 4.06667 21.54 4.52 21.54H8.8V23.44ZM9.6 21.54H11.7C12.1533 21.54 12.4467 21.6133 12.58 21.76C12.7267 21.9067 12.8 22.2133 12.8 22.68V34.84C12.8 35.3067 12.7267 35.62 12.58 35.78C12.4333 35.9267 12.14 36 11.7 36H9.6V29.3H7.42V27.4H9.6V21.54ZM18.8466 36H16.7466C16.2932 36 15.9932 35.9267 15.8466 35.78C15.7132 35.6333 15.6466 35.3267 15.6466 34.86V22.34C15.6466 22.1 15.7132 21.9067 15.8466 21.76C15.9799 21.6133 16.1532 21.54 16.3666 21.54H18.8466V36ZM19.6466 21.54H22.1866C22.9599 21.54 23.5666 21.6 24.0066 21.72C24.4599 21.84 24.7999 22.08 25.0266 22.44C25.2532 22.7867 25.3932 23.18 25.4466 23.62C25.5132 24.0467 25.5466 24.6533 25.5466 25.44C25.5466 26.2267 25.5132 26.8267 25.4466 27.24C25.3932 27.6533 25.2532 28.04 25.0266 28.4C24.8132 28.76 24.4732 29.0133 24.0066 29.16C23.5532 29.3067 22.9466 29.38 22.1866 29.38H19.6466V27.48H21.1266C21.4732 27.48 21.6932 27.4333 21.7866 27.34C21.8932 27.2467 21.9466 27.1 21.9466 26.9V24.04C21.9466 23.8267 21.8932 23.6733 21.7866 23.58C21.6932 23.4867 21.4732 23.44 21.1266 23.44H19.6466V21.54ZM21.5666 30H24.0466C24.4466 30 24.7332 30.1133 24.9066 30.34C25.0799 30.5533 25.1666 30.9067 25.1666 31.4V36H22.2866C22.0732 36 21.8999 35.9267 21.7666 35.78C21.6332 35.6333 21.5666 35.44 21.5666 35.2V30ZM31.3294 21.56V27.3C31.3294 27.5133 31.376 27.6667 31.4694 27.76C31.576 27.8533 31.8027 27.9 32.1494 27.9H33.6294V29.8H31.0894C30.3294 29.8 29.716 29.72 29.2494 29.56C28.796 29.4 28.456 29.12 28.2294 28.72C28.016 28.3067 27.876 27.8667 27.8094 27.4C27.756 26.9333 27.7294 26.3067 27.7294 25.52C27.7294 24.72 27.756 24.1133 27.8094 23.7C27.876 23.2867 28.016 22.9 28.2294 22.54C28.456 22.18 28.796 21.9267 29.2494 21.78C29.716 21.6333 30.3294 21.56 31.0894 21.56H31.3294ZM34.4294 27.9H34.6694C35.2427 27.9 35.6827 27.9133 35.9894 27.94C36.3094 27.9533 36.616 28.0133 36.9094 28.12C37.2027 28.2133 37.4027 28.3267 37.5094 28.46C37.6294 28.5933 37.736 28.8267 37.8294 29.16C37.936 29.48 37.996 29.8267 38.0094 30.2C38.0227 30.5733 38.0294 31.1067 38.0294 31.8C38.0294 32.4933 38.0227 33.0467 38.0094 33.46C37.996 33.86 37.936 34.2467 37.8294 34.62C37.736 34.98 37.6294 35.2333 37.5094 35.38C37.4027 35.5267 37.2027 35.66 36.9094 35.78C36.616 35.8867 36.3094 35.9533 35.9894 35.98C35.6827 35.9933 35.2427 36 34.6694 36H34.4294V27.9ZM28.0094 31.54H30.5294C30.716 31.54 30.8294 31.5667 30.8694 31.62C30.9094 31.6733 30.9294 31.7867 30.9294 31.96V33.52C30.9294 33.7333 30.956 33.8867 31.0094 33.98C31.076 34.06 31.2294 34.1 31.4694 34.1H33.6294V36H30.6894C29.716 36 28.976 35.8333 28.4694 35.5C27.976 35.1667 27.7294 34.5867 27.7294 33.76V31.96C27.7294 31.68 27.8227 31.54 28.0094 31.54ZM32.1294 21.54H34.6694C35.6427 21.54 36.376 21.7067 36.8694 22.04C37.376 22.3733 37.6294 22.9533 37.6294 23.78V25.58C37.6294 25.86 37.536 26 37.3494 26H34.8294C34.6427 26 34.5294 25.9733 34.4894 25.92C34.4494 25.8667 34.4294 25.7533 34.4294 25.58V24.02C34.4294 23.8067 34.396 23.66 34.3294 23.58C34.276 23.4867 34.1294 23.44 33.8894 23.44H32.1294V21.54Z" fill="#4A637D"/>
</svg>
